<?xml version="1.0" standalone="no"?>
<!DOCTYPE svg PUBLIC "-//W3C//DTD SVG 20010904//EN"
 "http://www.w3.org/TR/2001/REC-SVG-20010904/DTD/svg10.dtd">
<svg version="1.0" xmlns="http://www.w3.org/2000/svg"
 width="525.000000pt" height="525.000000pt" viewBox="0 0 525.000000 525.000000"
 preserveAspectRatio="xMidYMid meet">
<metadata>
Created by potrace 1.11, written by Peter Selinger 2001-2013
</metadata>
<g transform="translate(0.000000,525.000000) scale(0.100000,-0.100000)"
fill="#000000" stroke="none">
<path d="M2330 4610 c-640 -25 -1131 -134 -1402 -312 l-78 -52 0 -492 0 -492
-100 -27 c-62 -18 -100 -33 -100 -42 0 -14 -18 -17 -44 -7 -12 5 -16 20 -16
60 0 49 -2 54 -22 54 -46 0 -144 -20 -180 -36 l-38 -17 0 -338 0 -338 48 -14
c26 -8 115 -30 196 -48 122 -28 150 -37 156 -54 5 -11 23 -60 40 -110 41 -113
157 -357 200 -421 19 -27 53 -74 78 -105 l44 -55 100 29 99 29 132 -128 c281
-274 716 -620 1120 -892 l77 -53 63 43 c504 341 982 731 1228 1003 164 180
252 326 329 548 15 43 30 80 32 82 2 3 47 14 99 25 149 31 441 99 477 111 l32
11 0 334 0 334 -26 17 c-28 18 -129 42 -176 43 -27 0 -28 -2 -28 -54 0 -54 -9
-65 -55 -66 -7 0 -9 194 -7 567 1 355 -1 574 -7 583 -8 12 -26 10 -121 -18
l-111 -33 -70 40 c-302 174 -731 262 -1424 291 -257 11 -250 11 -545 0z m-465
-480 c265 -30 455 -152 559 -359 25 -51 46 -99 46 -107 0 -21 36 -17 80 9 43
24 49 37 25 57 -8 7 -12 16 -9 21 3 5 -2 9 -11 9 -14 0 -13 4 4 26 12 15 21
38 21 51 0 36 18 63 42 63 25 0 47 -27 48 -58 0 -26 17 -63 34 -74 7 -5 5 -8
-5 -8 -15 0 -48 -56 -38 -64 2 -1 24 -14 49 -28 46 -26 70 -27 70 -3 0 7 21
55 46 106 104 206 294 329 557 358 115 13 836 14 856 2 23 -15 -16 -28 -101
-33 -263 -16 -449 -301 -362 -552 21 -59 17 -62 -30 -18 -61 57 -101 74 -177
80 -112 8 -200 -36 -260 -130 l-34 -53 -5 56 c-8 90 -64 149 -143 149 -44 0
-70 -12 -109 -48 l-28 -26 0 26 c0 28 -40 68 -67 68 -8 0 -28 -14 -44 -31 -16
-18 -32 -29 -36 -26 -3 4 -24 -9 -48 -28 -33 -27 -44 -32 -54 -22 -10 10 -12
3 -9 -35 3 -50 0 -56 -20 -36 -9 9 -15 3 -27 -26 -21 -50 -33 -156 -36 -311
-2 -141 -4 -155 -25 -155 -10 0 -14 14 -15 48 -1 26 -3 65 -5 87 -1 22 -5 83
-9 135 -5 83 -27 199 -42 223 -3 4 -12 2 -20 -5 -14 -11 -15 -9 -10 17 4 17 3
46 -2 65 -8 32 -9 33 -10 8 -1 -16 -4 -28 -7 -28 -3 0 -23 14 -44 30 -21 17
-43 30 -50 30 -7 0 -25 14 -40 30 -15 17 -35 30 -43 30 -27 0 -67 -40 -67 -68
l0 -26 -35 34 c-28 27 -44 34 -87 37 -91 7 -149 -46 -158 -145 l-5 -55 -33 52
c-60 92 -150 137 -261 129 -76 -6 -116 -23 -177 -80 -48 -45 -52 -42 -28 23
25 66 23 200 -5 270 -64 165 -218 279 -378 279 -56 0 -98 14 -88 30 8 13 742
13 860 0z m1155 -1184 c0 -2 -7 -9 -15 -16 -13 -11 -14 -10 -9 4 5 14 24 23
24 12z m-836 -87 c29 -68 34 -95 10 -61 -19 27 -78 31 -88 6 -4 -9 -9 -14 -12
-11 -7 7 46 127 56 127 4 0 19 -27 34 -61z m1006 -4 c0 -36 -3 -65 -7 -64 -5
0 -25 21 -45 45 l-38 45 0 -45 c0 -25 -4 -46 -10 -46 -6 0 -10 27 -10 60 0 33
4 60 9 60 5 0 25 -19 45 -42 l36 -43 0 48 c0 26 5 47 10 47 6 0 10 -28 10 -65z
m-875 45 c3 -6 -9 -9 -32 -7 -50 3 -52 -22 -3 -38 37 -13 54 -50 28 -66 -19
-13 -62 -11 -76 3 -22 22 -13 27 17 10 24 -14 31 -14 45 -3 25 21 20 29 -25
42 -43 13 -55 28 -45 54 6 17 81 21 91 5z m129 -5 c23 -24 28 -52 14 -82 -10
-22 -21 -29 -48 -31 -19 -2 -44 4 -54 11 -27 20 -27 84 -1 103 25 18 70 18 89
-1z m130 9 c30 -12 16 -22 -24 -17 -35 5 -41 3 -51 -20 -10 -22 -9 -31 6 -53
15 -23 22 -26 53 -21 34 6 35 5 18 -8 -24 -18 -31 -18 -59 -4 -30 16 -37 28
-37 66 0 47 47 75 94 57z m56 -65 c0 -33 -4 -59 -10 -59 -6 0 -10 29 -10 66 0
41 4 63 10 59 6 -3 10 -33 10 -66z m105 10 c27 -60 29 -83 5 -54 -17 21 -67
19 -79 -2 -5 -10 -12 -15 -16 -12 -7 8 45 129 55 129 4 0 20 -27 35 -61z m135
46 c15 -18 7 -19 -21 -4 -30 16 -69 -13 -69 -51 0 -36 28 -54 73 -45 24 5 28
4 17 -4 -8 -6 -29 -11 -47 -11 -57 0 -83 65 -43 108 24 25 72 29 90 7z m37
-82 c-2 -21 -4 -6 -4 32 0 39 2 55 4 38 2 -18 2 -50 0 -70z m141 85 c17 -17
15 -78 -5 -100 -35 -39 -113 -8 -113 45 0 40 27 67 69 67 20 0 42 -5 49 -12z
m-1388 -63 c102 -9 228 -20 280 -25 l95 -9 -120 4 c-166 7 -466 34 -490 46
-16 7 -12 8 15 5 19 -3 118 -12 220 -21z m2190 16 c-18 -10 -331 -40 -490 -46
-168 -6 -115 2 130 20 118 9 242 20 275 25 87 11 103 11 85 1z m-2527 -35 c18
-8 43 -24 57 -35 l25 -20 -22 -22 -21 -22 -35 22 c-95 58 -193 -5 -173 -113
18 -98 186 -149 186 -56 0 27 -3 30 -29 30 -47 0 -61 10 -61 41 0 33 9 34 108
23 l52 -7 0 -78 c0 -72 -2 -79 -26 -98 -82 -64 -246 -10 -291 96 -18 45 -16
131 5 173 36 73 141 103 225 66z m2837 -11 c26 -24 25 -39 -4 -54 -17 -10 -29
-10 -44 -2 -51 27 -132 3 -132 -39 0 -23 20 -30 81 -30 74 0 116 -21 127 -64
27 -95 -49 -166 -175 -166 -52 0 -66 4 -92 26 -38 32 -39 45 -3 66 27 16 29
16 49 -4 39 -39 153 -16 153 30 0 29 -21 42 -69 42 -97 0 -151 35 -151 97 0
34 40 84 83 104 53 25 146 22 177 -6z m-2660 -137 c5 -117 7 -128 29 -152 18
-19 35 -26 60 -26 69 0 81 25 81 175 0 103 2 116 16 111 9 -3 24 -6 35 -6 18
0 19 -8 19 -126 0 -144 -11 -181 -64 -209 -24 -13 -47 -17 -90 -13 -63 5 -98
26 -133 78 -21 30 -23 44 -23 167 l0 134 33 -3 32 -3 5 -127z m2368 90 l-3
-33 -75 -8 c-122 -13 -120 -13 -120 -53 0 -36 0 -36 38 -30 20 3 63 8 95 11
l57 6 0 -34 c0 -39 4 -37 -132 -52 l-58 -6 0 -35 0 -35 58 6 c31 3 74 8 95 11
l37 6 0 -40 0 -39 -82 -7 c-46 -4 -107 -9 -135 -13 l-53 -6 0 181 0 180 68 7
c37 3 76 7 87 9 11 2 44 4 73 5 l53 1 -3 -32z m-298 -168 c0 -103 -4 -180 -9
-180 -5 0 -15 -2 -23 -5 -8 -3 -46 35 -98 101 l-85 106 -3 -111 -3 -111 -39 0
-40 0 0 180 0 180 33 0 c30 0 41 -10 113 -97 l79 -96 3 101 c3 106 4 107 55
111 16 1 17 -14 17 -179z m-1554 15 c36 -82 71 -165 79 -182 l14 -33 -40 0
c-35 0 -41 4 -56 35 -14 30 -21 35 -52 35 -20 0 -60 3 -89 7 -52 6 -53 6 -65
-26 -10 -28 -15 -31 -54 -31 -24 0 -43 2 -43 4 0 2 25 57 56 122 31 66 67 143
80 172 23 53 24 53 64 50 l41 -3 65 -150z m316 125 c50 -14 88 -61 88 -110 0
-52 -18 -88 -52 -106 l-29 -15 48 -54 48 -54 3 169 2 170 101 0 c148 0 196
-30 220 -137 21 -91 -22 -177 -105 -208 -35 -14 -70 -16 -172 -13 l-127 4 -56
62 c-43 48 -62 62 -83 62 -27 0 -28 -1 -28 -60 l0 -60 -35 0 -35 0 0 183 0
182 87 -3 c49 -1 105 -7 125 -12z m843 -161 c83 -181 85 -193 25 -187 -18 2
-29 13 -40 37 -14 33 -15 33 -65 27 -27 -3 -67 -6 -88 -6 -33 0 -39 -4 -54
-35 -15 -31 -21 -35 -55 -35 -21 0 -38 4 -38 8 0 4 26 66 59 137 32 72 67 151
79 178 20 45 23 47 60 47 l39 0 78 -171z m-325 -19 l0 -180 -35 0 -35 0 0 180
0 180 35 0 35 0 0 -180z m-214 -322 c-3 -29 -6 -264 -7 -523 -1 -259 -5 -450
-9 -425 -4 25 -6 239 -3 475 2 237 4 451 4 478 -1 29 3 47 10 47 8 0 10 -16 5
-52z m-242 -737 c26 -29 17 -55 -22 -61 -43 -7 -42 -24 3 -28 24 -2 35 -8 35
-19 0 -10 -6 -13 -16 -9 -9 3 -31 6 -50 6 -34 0 -35 1 -32 33 3 28 7 32 36 35
18 2 32 9 32 17 0 18 -30 28 -47 14 -16 -14 -28 -6 -20 16 9 21 60 19 81 -4z
m126 -11 c22 -22 25 -46 10 -84 -13 -35 -71 -37 -94 -4 -47 67 28 144 84 88z
m368 8 c16 -16 16 -90 0 -106 -7 -7 -27 -12 -45 -12 -36 0 -53 21 -53 64 0 50
66 86 98 54z m-128 -47 c0 -28 5 -53 10 -56 20 -12 9 -25 -20 -25 -16 0 -30 5
-30 10 0 6 5 10 10 10 6 0 10 18 10 40 0 22 -4 40 -10 40 -5 0 -10 7 -10 15 0
8 9 15 20 15 17 0 20 -7 20 -49z"/>
<path d="M2592 3660 c-13 -6 -30 -26 -38 -46 -14 -33 -13 -38 4 -67 23 -41 60
-54 100 -38 31 13 59 61 47 80 -6 10 -92 7 -103 -3 -12 -13 12 -25 40 -19 24
5 30 3 26 -8 -6 -18 -55 -24 -74 -8 -17 14 -18 51 -2 67 15 15 54 16 63 2 8
-13 45 -13 45 -1 0 14 -51 51 -69 50 -9 0 -26 -4 -39 -9z"/>
<path d="M2133 2860 c-11 -29 -10 -30 17 -30 27 0 28 1 17 30 -6 17 -14 30
-17 30 -3 0 -11 -13 -17 -30z"/>
<path d="M2366 2884 c-32 -31 -7 -94 37 -94 45 0 63 68 25 94 -28 20 -43 20
-62 0z"/>
<path d="M2686 2853 l-17 -33 31 0 c26 0 29 3 22 18 -5 9 -11 24 -14 32 -3 10
-10 5 -22 -17z"/>
<path d="M2968 2889 c-26 -15 -23 -64 4 -83 29 -20 34 -20 58 4 48 48 -4 113
-62 79z"/>
<path d="M1886 2612 c-14 -28 -26 -56 -26 -61 0 -9 98 -27 104 -20 1 2 -10 33
-25 68 l-27 64 -26 -51z"/>
<path d="M2195 2624 c-3 -25 -5 -48 -3 -50 3 -2 33 -5 67 -6 52 -3 65 0 77 16
34 47 -2 86 -80 86 l-54 0 -7 -46z"/>
<path d="M2520 2556 c0 -118 2 -121 77 -110 77 11 115 86 81 159 -16 35 -57
55 -113 55 l-45 0 0 -104z"/>
<path d="M3042 2613 c-6 -16 -18 -45 -27 -67 l-16 -39 53 7 c29 4 54 9 55 10
4 4 -46 116 -51 116 -2 0 -9 -12 -14 -27z"/>
<path d="M2454 1456 c-3 -8 -4 -25 -2 -38 2 -17 9 -23 28 -23 22 0 25 4 25 35
0 29 -4 36 -23 38 -13 2 -24 -3 -28 -12z"/>
<path d="M2827 1464 c-13 -13 -7 -65 8 -70 23 -9 46 16 43 45 -3 26 -35 41
-51 25z"/>
</g>
</svg>
